<?xml version="1.0" encoding="utf-8"?>
<!-- Generator: Adobe Illustrator 25.0.0, SVG Export Plug-In . SVG Version: 6.00 Build 0)  -->
<svg version="1.1" id="Layer_1" xmlns="http://www.w3.org/2000/svg" xmlns:xlink="http://www.w3.org/1999/xlink" x="0px" y="0px"
	 viewBox="0 0 253 115" style="enable-background:new 0 0 253 115;" xml:space="preserve">
<style type="text/css">
	.st0{fill:#FFFFFF;}
	.st1{fill:#F2982A;}
	.st2{fill:#E1E4E8;}
	.st3{fill:#7B7B7B;}
	.st4{fill:#EE9839;}
</style>
<g>
	<path class="st0" d="M88.2,92.2c-1.3,0-2.3-0.7-3-1.6c-3.5,5.5-6.8,10.9-6.9,11c-0.2,0.2-0.5,0.4-0.8,0.4c-0.3,0-0.6,0.2-0.9,0.2
		c-0.1,0-0.3,0-0.4,0h-0.3c-0.8,0-1.1-0.4-1.1-0.7c0-0.1,0-0.2,0.1-0.3c1.3-3.4,12.8-20.2,14.2-21.6c0.5-0.5,0.9-0.6,2.1-0.6H92
		c0.1,0,0.2,0.3,0.2,0.5c0,0.1,0,0.3-0.1,0.4c-1.3,1.8-3.5,5.3-5.8,8.9c0.2,0.5,0.8,0.4,1.7,0.4c4.7,0,10.5-5,10.5-7.2
		c0-2.6-3.2-3.5-6.6-3.5c-3.7,0-9.7,2.5-11.8,4.1c-0.4,0.3-0.6,0.7-0.6,0.9c0,0.3,0.3,0.6,0.8,0.6c0.3,0,0.5-0.1,0.9-0.2h0
		c0.1,0,0.1,0.2,0.1,0.4c0,0.2,0,0.4-0.1,0.4c-0.3,0.2-1.7,1.3-3.3,1.3c-1.7,0-2.3-1.2-2.3-2.6c0-3.2,7.2-7.5,16.9-7.5
		c6.5,0,10,2.7,10,5.2C102.7,86.6,94.3,92.2,88.2,92.2"/>
	<path class="st0" d="M109.2,94c-0.3,0.3-0.6,0.6-1,0.6c-0.8,0-1.2-0.7-1.2-1.4c0-1.1,0.7-2.1,1.3-2.8l0,0c-0.9,0.1-5.9,5.3-6.8,6.3
		c-1.4,1.5-2.6,3.1-3.8,4.7c-0.2,0.3-0.7,0.8-1.1,0.8c-0.3,0-1.5-0.5-1.7-0.6c-0.1-0.1-0.1-0.2-0.1-0.3c0-0.6,0.7-1.5,1.1-2.2
		c1.6-2.7,3.2-5.4,4.8-8.1c0.5-0.9,1-1.8,1.6-2.6c0.6-0.8,1.8-1,2.8-1c0.4,0,0.4,0.4,0.4,0.7c0,0.9-1.8,3.4-2.4,4.2
		c1.7-1.9,4.6-4.9,7.3-4.9c1,0,1.7,0.6,1.7,1.6C112.1,89.9,109.9,93.1,109.2,94"/>
	<path class="st0" d="M120.5,90.6c-0.4,0-0.6-0.2-0.6-0.9c-1.7,0.6-3.8,2-5.4,4.2c-1.6,2-2.3,3.9-2.3,5c0,0.6,0.3,1,0.7,1
		c0.8,0,3-1.1,5.2-3.8c2-2.5,2.8-4.3,2.8-5c0-0.2-0.1-0.4-0.3-0.4H120.5z M112.3,102.5c-1.8,0-3-1.4-3-3c0-6.6,7.2-12.2,10.6-12.2
		c1.1,0,1.7,0.6,1.7,0.8v0.1c0.3,0,0.5,0,0.6,0c0.9,0,1.9,0.6,1.9,1.9C124.1,93.8,117.6,102.5,112.3,102.5"/>
	<path class="st0" d="M130,95.9l-2,0.5c-2.7,4.6-7.2,11.9-7.2,13.4c0,0.2,0.1,0.3,0.2,0.3c1.2,0,10.1-7.8,10.1-12.4
		C131.1,97,130.6,96.4,130,95.9 M130,93.1c0.1,0,0.3,0.1,0.5,0.2c1.9-0.3,3.6-0.6,4-0.7c0.1,0,0.2,0,0.3,0c0.6,0,1.3,0.4,2.1,0.5
		c0.1,0,0.3,0.4,0.3,0.8c0,0.3-0.1,0.5-0.4,0.5c-0.2,0-1.6,0.4-3.4,0.8c0.6,0.7,1,1.5,1,2.3c0,5.1-10.9,15.8-14.4,15.8
		c-0.7,0-2.1-0.4-2.1-1.9c0-3.1,3-8,6.8-14.2c-0.4,0.1-0.5,0.1-0.7,0.1c-1,0-1.1-0.9-1.1-1.1c0-0.2-0.1-0.3-0.1-0.5
		c0-0.1,0-0.2,0.1-0.2c0.3-0.2,0.4-0.6,0.7-0.9c0.3-0.3,0.8-0.8,1.1-0.9c0.3-0.1,1.2-0.4,2.4-0.6c5.1-8.5,10.1-16.3,10.5-16.8
		c0.9-1,2.6-1.4,3-1.4c0.3,0,0.5,0.1,0.5,0.4c0,0.1,0,0.3-0.1,0.4C140.5,76.4,133.7,86.9,130,93.1"/>
	<path class="st0" d="M146,91.4c-0.6,0-0.7-0.3-0.7-0.8c0-0.2,0-0.3,0.1-0.5c-0.5,0.2-1,0.4-1.5,0.7c-0.6,0.3-3.1,2-3.1,2.6
		c0,0.1,0.3,0.1,0.4,0.1c1,0,1.8-0.6,2.7-0.6c0.1,0,0.3,0,0.4,0c0.3,0.2,0.8,0.9,0.8,1.2c0,0.3-0.4,0.6-0.6,0.8
		c-0.5,0.4-1.1,0.5-1.7,0.8c-0.7,0.4-3.8,2.1-3.8,3c0,1.3,1.5,1.4,2.4,1.4c2.7,0,5.2-2.5,6.9-3.8c0.1-0.1,0.3-0.2,0.4-0.2
		c0.5,0,0.5,1.1,0.5,1.4c0,0.3,0,0.7-0.1,1c-0.1,0.3-0.5,0.6-0.7,0.9c-1.7,1.4-4.4,3.2-7.4,3.2c-2.2,0-5-0.7-5-3.4
		c0-2,1.8-3.2,3.5-3.8c-1-0.5-1.1-1.2-1.1-2.1c0-3.6,6.1-6.2,9.1-6.2c0.6,0,1.8,0.3,1.8,1.1C149.2,90,147.6,91.4,146,91.4"/>
	<path class="st0" d="M163,88.2c0,0.6-0.2,1.3-0.4,1.5c-0.5,0.6-1.8,1.4-2.9,1.4c-0.6,0-0.6-0.3-0.8-0.4c-0.1-0.1-0.2-0.2-0.2-0.3
		c0-0.3,0.3-0.4,0.4-0.9c-3.4,0.2-6.9,3.1-6.9,3.7c0,0.7,3.1,0.5,6.2,1.9c1.1,0.5,1.7,1.6,1.7,2.3c0,3.3-5.7,5.3-8.7,5.3
		c-2.6,0-3.5-1.2-3.5-2.2c0-1.3,0.7-2.5,1.5-2.5c0.5,0,0.9,0,0.9,0.4c0,0.1,0,0.2,0,0.3c0,0.7,0.7,1.1,1,1.1c3.1,0,5.6-1.1,5.6-2
		c0-0.7-2.5-0.9-4.9-1.7c-1.2-0.4-2.6-0.9-2.6-2.5c0-4.4,8.3-7.2,11-7.2c2.7,0,2.6,1.2,2.6,1.6V88.2z"/>
	<path class="st0" d="M176,88.2c0,0.6-0.2,1.3-0.4,1.5c-0.5,0.6-1.8,1.4-2.9,1.4c-0.6,0-0.6-0.3-0.8-0.4c-0.1-0.1-0.2-0.2-0.2-0.3
		c0-0.3,0.3-0.4,0.4-0.9c-3.4,0.2-6.9,3.1-6.9,3.7c0,0.7,3.1,0.5,6.2,1.9c1.1,0.5,1.7,1.6,1.7,2.3c0,3.3-5.7,5.3-8.7,5.3
		c-2.6,0-3.5-1.2-3.5-2.2c0-1.3,0.7-2.5,1.5-2.5c0.5,0,0.9,0,0.9,0.4c0,0.1,0,0.2,0,0.3c0,0.7,0.7,1.1,1,1.1c3.1,0,5.6-1.1,5.6-2
		c0-0.7-2.5-0.9-4.9-1.7c-1.2-0.4-2.6-0.9-2.6-2.5c0-4.4,8.3-7.2,11-7.2c2.7,0,2.6,1.2,2.6,1.6V88.2z"/>
	<path class="st0" d="M183.9,85.2c-0.7,0-1.1-0.4-1.1-1.1c0-1.5,1.5-3.1,3-3.1c0.7,0,1.1,0.4,1.1,1
		C186.8,83.4,185.3,85.2,183.9,85.2 M183.8,98.7c-1.3,2.6-4.4,4.1-6.4,4.1c-1.6,0-3.3-1.5-3.3-3.1c0-1.8,4-7.7,4-7.9
		c0-0.4-0.7-0.8-0.7-1.2c0-0.3,2.8-3.4,4.4-3.4c0.6,0,1.3,0.9,1.3,1.5c0,0.4-3.8,7-4.3,7.9c-0.4,0.7-1.4,2-1.4,2.9
		c0,0.5,0.5,0.6,0.9,0.6c2.2,0,4.6-3.7,5.2-3.7c0.5,0,0.5,1.3,0.5,1.6C183.9,98.2,183.9,98.5,183.8,98.7"/>
	<path class="st0" d="M192.9,90.6c-0.4,0-0.6-0.2-0.6-0.9c-1.7,0.6-3.8,2-5.4,4.2c-1.6,2-2.3,3.9-2.3,5c0,0.6,0.3,1,0.7,1
		c0.8,0,3-1.1,5.2-3.8c2-2.5,2.8-4.3,2.8-5c0-0.2-0.1-0.4-0.3-0.4H192.9z M184.8,102.5c-1.8,0-3-1.4-3-3c0-6.6,7.2-12.2,10.6-12.2
		c1.1,0,1.7,0.6,1.7,0.8v0.1c0.3,0,0.5,0,0.6,0c0.9,0,1.9,0.6,1.9,1.9C196.6,93.8,190,102.5,184.8,102.5"/>
	<path class="st0" d="M211.6,99.6c-1.3,1.2-3.4,3.1-5.6,3.1c-1.5,0-3.1-1.2-3.1-2.9c0-2.3,2-5.4,3.5-7.7c0.2-0.3,0.9-1.4,1-1.7l0,0
		c-0.9,0.1-5.9,5.3-6.8,6.3c-1.4,1.5-2.6,3.1-3.8,4.7c-0.3,0.3-0.7,0.8-1.1,0.8c-0.3,0-1.5-0.5-1.7-0.6c-0.1-0.1-0.1-0.2-0.1-0.3
		c0-0.6,0.7-1.6,1.1-2.2c1.6-2.7,3.2-5.4,4.8-8.1c0.5-0.9,1-1.8,1.6-2.6c0.6-0.8,1.8-1,2.8-1c0.4,0,0.4,0.4,0.4,0.7
		c0,0.9-1.8,3.4-2.3,4.2c1.7-1.9,4.6-4.9,7.4-4.9c0.9,0,1.7,0.6,1.7,1.6c0,1.1-2.2,4.1-2.9,5.2c-0.6,0.9-2.6,4-2.6,5.2
		c0,0.6,0.6,0.8,1.1,0.8c1.7,0,4.7-3.7,5.2-3.7c0.5,0,0.5,1.3,0.5,1.6C212.5,98.6,212.3,99.2,211.6,99.6"/>
	<path class="st0" d="M215.8,93.7c-1.6,1.7-3.2,4.4-3.2,5.5c0,0.3,0.1,0.5,0.4,0.5c0.7,0,4.8-3.6,6.2-5.3c0.8-1,2.1-2.8,3-4.1
		C221,90.2,218.6,90.7,215.8,93.7 M227.6,98c0,0.3,0,0.6-0.1,0.8c-0.5,1-3.3,4-5.7,4c-1.9,0-2.7-1.5-2.7-3c0-0.6,0.1-1.2,0.4-1.7
		c-2,2.6-5,4.7-6.8,4.7c-1.6,0-2.7-1.2-2.8-2.5c-0.1-0.3-0.1-0.6-0.1-0.9c0-5.4,6.8-11.2,10.9-11.2c1.4,0,2.2,0.5,2.4,1.1
		c0.6-0.9,0.9-1,1.6-1c0.8,0,1.4,0.3,1.4,0.9c0,0.3-0.1,0.6-0.3,0.8c-0.3,0.3-3.3,5.3-3.9,8.5c0,0.1-0.1,0.3-0.1,0.5
		c0,0.5,0.1,1,0.6,1c1.5,0,4-3.2,4.3-3.5c0.1-0.1,0.3-0.2,0.4-0.2c0.2,0,0.4,0.1,0.4,0.3C227.6,96.9,227.6,97.5,227.6,98"/>
	<path class="st0" d="M240.1,77.5c-1,0-6.1,7.4-6.9,8.7c-1,1.8-2,4.2-2.7,6.2c1.8-2.1,9.7-12.7,9.7-14.6
		C240.3,77.6,240.2,77.5,240.1,77.5 M229.8,96.5c-0.1,0.6-0.3,1.1-0.3,1.7c0,1.2,0.9,1.8,2,1.8c2.3,0,4.8-3.8,5.6-3.8
		c0.5,0,0.5,1,0.5,1.3V98c0,0.8-0.4,1.2-0.9,1.7c-1.5,1.7-4.2,3-6.4,3c-2.4,0-3.6-1.6-3.6-3.9c0-5,3.3-12.4,6.2-16.5
		c2.2-3.2,5.7-7.6,8.2-7.6c1.1,0,2.2,0.7,2.2,1.9C243.3,80.8,232.9,93.1,229.8,96.5"/>
	<path class="st0" d="M250.3,88.2c0,0.6-0.2,1.3-0.4,1.5c-0.5,0.6-1.8,1.4-2.9,1.4c-0.6,0-0.6-0.3-0.8-0.4c-0.1-0.1-0.2-0.2-0.2-0.3
		c0-0.3,0.3-0.4,0.4-0.9c-3.4,0.2-6.9,3.1-6.9,3.7c0,0.7,3.1,0.5,6.2,1.9c1.1,0.5,1.7,1.6,1.7,2.3c0,3.3-5.7,5.3-8.7,5.3
		c-2.6,0-3.5-1.2-3.5-2.2c0-1.3,0.7-2.5,1.5-2.5c0.5,0,0.9,0,0.9,0.4c0,0.1,0,0.2,0,0.3c0,0.7,0.7,1.1,1,1.1c3.1,0,5.6-1.1,5.6-2
		c0-0.7-2.5-0.9-4.9-1.7c-1.2-0.4-2.6-0.9-2.6-2.5c0-4.4,8.3-7.2,11-7.2c2.7,0,2.6,1.2,2.6,1.6V88.2z"/>
	<path class="st1" d="M3,32.7v16.3c0,8.7,6.3,15.8,13.9,15.8h17.6V32.7H3z"/>
	<path class="st1" d="M34.5,1.5H16.9C9.3,1.5,3,8.6,3,17.3v15.4h31.5V1.5z"/>
	<path class="st1" d="M66.2,17.3c0-8.7-6.3-15.8-13.9-15.8H34.5v31.8h31.7V17.3z"/>
	<path class="st2" d="M34.5,33.3v31.6h17.8c7.6,0,13.9-7.1,13.9-15.8V33.3H34.5z"/>
	<polygon class="st2" points="26.6,16 26.6,18.2 19.8,18.2 19.8,25 17.7,25 17.7,18.2 10.9,18.2 10.9,16 17.7,16 17.7,9.2 19.8,9.2 
		19.8,16 	"/>
	<polygon class="st2" points="25.1,53.6 23.6,55.1 18.8,50.3 13.9,55.2 12.4,53.7 17.2,48.8 12.4,44 13.9,42.5 18.8,47.3 23.6,42.5 
		25.1,44 20.3,48.8 	"/>
	<rect x="42.9" y="16.1" class="st2" width="15" height="2.5"/>
	<path class="st3" d="M57.9,53.3h-15v-2.1h15V53.3z M42.9,44.8h15V47h-15V44.8z"/>
	<path class="st0" d="M87.8,36.9L87.8,36.9l-6.7,16.5h13.1L87.8,36.9z M77.2,63h-0.8l10.9-26.8h1L98.8,63H98l-3.5-8.8H80.8L77.2,63z
		"/>
	<path class="st0" d="M115.2,59.3c-0.4,0.9-1,1.6-1.7,2.2c-0.7,0.6-1.5,1.1-2.4,1.4c-0.9,0.3-1.9,0.5-3,0.5c-1.4,0-2.6-0.3-3.7-0.8
		c-1.1-0.5-2-1.2-2.7-2.1c-0.7-0.9-1.3-1.9-1.7-3.1c-0.4-1.2-0.6-2.4-0.6-3.7c0-1.4,0.2-2.7,0.5-4c0.4-1.3,0.9-2.4,1.7-3.3
		c0.7-1,1.7-1.7,2.8-2.3c1.1-0.6,2.5-0.9,4-0.9c0.9,0,1.8,0.1,2.6,0.4c0.8,0.3,1.6,0.7,2.2,1.2c0.7,0.5,1.2,1.2,1.6,2
		c0.4,0.8,0.7,1.7,0.8,2.7h-0.8c-0.1-1-0.4-1.8-0.8-2.5c-0.4-0.7-0.9-1.3-1.5-1.7c-0.6-0.5-1.2-0.8-2-1c-0.7-0.2-1.5-0.3-2.3-0.3
		c-1.5,0-2.8,0.3-3.9,0.9c-1.1,0.6-1.9,1.4-2.6,2.3c-0.6,0.9-1.1,2-1.4,3.2c-0.3,1.2-0.4,2.3-0.4,3.4c0,1.2,0.2,2.3,0.5,3.4
		c0.3,1.1,0.8,2,1.5,2.9c0.7,0.8,1.5,1.5,2.4,2c1,0.5,2.1,0.7,3.4,0.7c1,0,1.8-0.1,2.7-0.4c0.8-0.3,1.6-0.7,2.2-1.3
		c0.6-0.5,1.2-1.2,1.6-2c0.4-0.8,0.6-1.6,0.7-2.6h0.8C115.9,57.5,115.6,58.4,115.2,59.3"/>
	<path class="st0" d="M134,59.3c-0.4,0.9-1,1.6-1.7,2.2c-0.7,0.6-1.5,1.1-2.4,1.4c-0.9,0.3-1.9,0.5-3,0.5c-1.4,0-2.6-0.3-3.7-0.8
		c-1.1-0.5-2-1.2-2.7-2.1c-0.7-0.9-1.3-1.9-1.7-3.1c-0.4-1.2-0.6-2.4-0.6-3.7c0-1.4,0.2-2.7,0.5-4c0.4-1.3,0.9-2.4,1.7-3.3
		c0.7-1,1.7-1.7,2.8-2.3c1.1-0.6,2.5-0.9,4-0.9c0.9,0,1.8,0.1,2.6,0.4c0.8,0.3,1.6,0.7,2.2,1.2c0.7,0.5,1.2,1.2,1.6,2
		c0.4,0.8,0.7,1.7,0.8,2.7h-0.8c-0.1-1-0.4-1.8-0.8-2.5c-0.4-0.7-0.9-1.3-1.5-1.7c-0.6-0.5-1.2-0.8-2-1c-0.7-0.2-1.5-0.3-2.3-0.3
		c-1.5,0-2.8,0.3-3.9,0.9c-1.1,0.6-1.9,1.4-2.6,2.3c-0.6,0.9-1.1,2-1.4,3.2c-0.3,1.2-0.4,2.3-0.4,3.4c0,1.2,0.2,2.3,0.5,3.4
		c0.3,1.1,0.8,2,1.5,2.9c0.7,0.8,1.5,1.5,2.4,2c1,0.5,2.1,0.7,3.4,0.7c1,0,1.8-0.1,2.7-0.4c0.8-0.3,1.6-0.7,2.2-1.3
		c0.6-0.5,1.2-1.2,1.6-2c0.4-0.8,0.6-1.6,0.7-2.6h0.8C134.7,57.5,134.4,58.4,134,59.3"/>
	<path class="st0" d="M178.1,63v-4.8H178c-0.4,1.5-1.1,2.7-2.3,3.7c-1.2,1-2.7,1.5-4.6,1.5c-1,0-1.9-0.1-2.8-0.4
		c-0.8-0.3-1.6-0.7-2.2-1.3c-0.6-0.6-1.1-1.3-1.4-2.2c-0.3-0.9-0.5-1.9-0.5-3V43.6h0.8v12.7c0,1.1,0.2,2.1,0.5,2.9
		c0.3,0.8,0.8,1.4,1.3,2c0.6,0.5,1.2,0.9,2,1.1c0.7,0.2,1.5,0.4,2.3,0.4c1.2,0,2.2-0.2,3-0.7c0.9-0.4,1.6-1,2.2-1.8
		c0.6-0.7,1-1.6,1.3-2.6c0.3-1,0.5-2,0.5-3.1V43.6h0.8V63H178.1z"/>
	<path class="st0" d="M183.7,43.6v4.8h0.1c0.2-0.8,0.5-1.4,0.8-2.1c0.4-0.6,0.9-1.2,1.5-1.7c0.6-0.5,1.3-0.8,2-1.1
		c0.8-0.3,1.6-0.4,2.6-0.4c1,0,1.9,0.2,2.8,0.5c0.8,0.3,1.6,0.7,2.2,1.3c0.6,0.6,1.1,1.3,1.4,2.2c0.3,0.9,0.5,1.9,0.5,3V63h-0.8
		V50.3c0-1.1-0.2-2.1-0.5-2.9c-0.3-0.8-0.8-1.4-1.3-2c-0.6-0.5-1.2-0.9-2-1.1c-0.7-0.2-1.5-0.4-2.3-0.4c-1.2,0-2.2,0.2-3,0.7
		c-0.9,0.4-1.6,1-2.2,1.8c-0.6,0.7-1,1.6-1.3,2.6c-0.3,1-0.5,2-0.5,3.1V63H183V43.6H183.7z"/>
	<path class="st0" d="M203.8,59.2c0,0.7,0.1,1.3,0.2,1.7c0.2,0.4,0.4,0.7,0.6,0.9c0.2,0.2,0.5,0.3,0.8,0.4c0.3,0,0.6,0.1,0.9,0.1
		c0.4,0,0.7,0,1,0c0.3,0,0.5,0,0.6-0.1v0.8c-0.2,0-0.4,0.1-0.7,0.1c-0.2,0-0.6,0-1.2,0c-0.9,0-1.6-0.3-2.2-0.8
		c-0.6-0.5-0.9-1.5-0.9-2.8v-15h-3.5v-0.8h3.5v-6.1h0.8v6.1h4.4v0.8h-4.4V59.2z"/>
	<path class="st0" d="M210.8,43.6h0.8V63h-0.8V43.6z M210.8,36.1h0.8v3.8h-0.8V36.1z"/>
	<path class="st0" d="M216.5,43.6v4.8h0.1c0.2-0.8,0.5-1.4,0.8-2.1c0.4-0.6,0.9-1.2,1.5-1.7c0.6-0.5,1.3-0.8,2-1.1
		c0.8-0.3,1.6-0.4,2.6-0.4c1,0,1.9,0.2,2.8,0.5c0.8,0.3,1.6,0.7,2.2,1.3c0.6,0.6,1.1,1.3,1.4,2.2c0.3,0.9,0.5,1.9,0.5,3V63h-0.8
		V50.3c0-1.1-0.2-2.1-0.5-2.9s-0.8-1.4-1.3-2c-0.6-0.5-1.2-0.9-2-1.1c-0.7-0.2-1.5-0.4-2.3-0.4c-1.2,0-2.2,0.2-3,0.7
		c-0.9,0.4-1.6,1-2.2,1.8c-0.6,0.7-1,1.6-1.3,2.6c-0.3,1-0.5,2-0.5,3.1V63h-0.8V43.6H216.5z"/>
	<path class="st0" d="M248.7,49.4c-0.3-1.1-0.8-2-1.4-2.8c-0.6-0.8-1.4-1.5-2.3-2c-0.9-0.5-2-0.7-3.2-0.7c-1.3,0-2.3,0.2-3.3,0.7
		c-0.9,0.5-1.7,1.1-2.4,1.9c-0.6,0.8-1.1,1.7-1.4,2.8c-0.3,1.1-0.5,2.2-0.5,3.3c0,1.2,0.2,2.3,0.5,3.3c0.3,1,0.8,1.9,1.4,2.7
		c0.6,0.8,1.4,1.4,2.3,1.8c0.9,0.4,1.9,0.7,3.1,0.7c1.3,0,2.4-0.2,3.3-0.7c1-0.5,1.7-1.1,2.4-1.8c0.6-0.8,1.1-1.7,1.5-2.7
		s0.5-2.1,0.5-3.3C249.2,51.6,249,50.5,248.7,49.4 M249.1,56.5c-0.2,0.9-0.6,1.6-1.1,2.3c-0.5,0.7-1.1,1.2-1.8,1.7
		c-0.7,0.5-1.4,0.8-2.3,1.1c-0.8,0.2-1.6,0.4-2.5,0.4c-1.4,0-2.5-0.2-3.5-0.8c-1-0.5-1.8-1.2-2.5-2c-0.7-0.8-1.2-1.8-1.5-3
		c-0.3-1.1-0.5-2.3-0.5-3.5c0-1.3,0.2-2.5,0.5-3.7c0.3-1.1,0.9-2.1,1.6-3c0.7-0.9,1.6-1.5,2.6-2c1-0.5,2.2-0.8,3.6-0.8
		c0.9,0,1.8,0.1,2.6,0.4c0.8,0.3,1.5,0.7,2.2,1.2c0.6,0.5,1.2,1.1,1.6,1.8c0.4,0.7,0.8,1.4,1,2.2h0.1v-5.1h0.8v18.7
		c0,2.7-0.7,4.6-2.1,5.8c-1.4,1.2-3.4,1.9-5.9,1.9c-1,0-1.9-0.1-2.8-0.3c-0.9-0.2-1.7-0.6-2.3-1.1c-0.7-0.5-1.2-1.1-1.6-1.9
		c-0.4-0.8-0.6-1.7-0.6-2.8h0.8c0,1,0.2,1.8,0.6,2.4c0.4,0.7,0.8,1.2,1.4,1.7c0.6,0.4,1.3,0.7,2.1,0.9c0.8,0.2,1.6,0.3,2.5,0.3
		c2.4,0,4.2-0.6,5.4-1.7c1.3-1.1,1.9-2.9,1.9-5.3L249.1,56.5L249.1,56.5z"/>
	<path class="st4" d="M85,27.8h9c1.6,0,2.8-0.4,3.6-1.2c0.9-0.8,1.3-1.9,1.3-3.4c0-1.4-0.4-2.5-1.3-3.3c-0.9-0.8-2.1-1.2-3.6-1.2h-9
		V27.8z M85,15h8.3c1.2,0,2.2-0.3,3.1-1c0.8-0.7,1.2-1.7,1.2-3c0-1.5-0.4-2.5-1.1-3.1C95.7,7.3,94.7,7,93.3,7H85V15z M79.9,2.8H94
		c2.6,0,4.7,0.6,6.3,1.8c1.6,1.2,2.4,3,2.4,5.4c0,1.5-0.4,2.7-1.1,3.8c-0.7,1-1.7,1.9-3.1,2.4v0.1c1.8,0.4,3.2,1.2,4.1,2.5
		c0.9,1.3,1.4,3,1.4,5c0,1.1-0.2,2.2-0.6,3.2c-0.4,1-1,1.8-1.9,2.6c-0.9,0.7-2,1.3-3.3,1.7c-1.4,0.4-3,0.6-4.9,0.6H79.9V2.8z"/>
	<path class="st4" d="M126.4,32h-4.6V29h-0.1c-0.6,1.1-1.4,1.9-2.5,2.5c-1.1,0.6-2.3,1-3.4,1c-2.8,0-4.8-0.7-6-2.1
		c-1.2-1.4-1.9-3.4-1.9-6.2V10.9h4.6v12.9c0,1.8,0.4,3.2,1.1,3.9c0.7,0.8,1.7,1.1,3,1.1c1,0,1.8-0.1,2.4-0.4
		c0.7-0.3,1.2-0.7,1.6-1.2c0.4-0.5,0.7-1.1,0.9-1.8c0.2-0.7,0.3-1.5,0.3-2.3V10.9h4.6V32z"/>
	<path class="st4" d="M134.9,25.2c0.1,1.4,0.7,2.3,1.5,2.9c0.9,0.5,2,0.8,3.2,0.8c0.4,0,0.9,0,1.5-0.1c0.6-0.1,1.1-0.2,1.6-0.4
		s0.9-0.5,1.2-0.8c0.3-0.4,0.5-0.8,0.4-1.4c0-0.6-0.2-1.1-0.7-1.5c-0.4-0.4-0.9-0.7-1.6-0.9c-0.6-0.2-1.4-0.4-2.2-0.6
		c-0.8-0.2-1.6-0.3-2.5-0.5c-0.9-0.2-1.7-0.4-2.5-0.7c-0.8-0.3-1.5-0.6-2.2-1.1c-0.6-0.5-1.2-1.1-1.5-1.8c-0.4-0.7-0.6-1.6-0.6-2.7
		c0-1.1,0.3-2.1,0.8-2.9c0.6-0.8,1.3-1.4,2.1-1.9c0.9-0.5,1.8-0.8,2.9-1c1-0.2,2-0.3,3-0.3c1.1,0,2.1,0.1,3.1,0.3
		c1,0.2,1.9,0.6,2.7,1.1c0.8,0.5,1.5,1.2,2,2c0.5,0.8,0.9,1.8,1,3h-4.9c-0.2-1.1-0.7-1.9-1.5-2.2c-0.8-0.4-1.7-0.6-2.8-0.6
		c-0.3,0-0.7,0-1.2,0.1c-0.4,0.1-0.9,0.2-1.3,0.3c-0.4,0.1-0.7,0.4-1,0.7c-0.3,0.3-0.4,0.7-0.4,1.1c0,0.6,0.2,1,0.6,1.4
		s0.9,0.6,1.6,0.9c0.6,0.2,1.4,0.4,2.2,0.6s1.7,0.3,2.5,0.5c0.8,0.2,1.7,0.4,2.5,0.7c0.8,0.3,1.5,0.6,2.2,1.1c0.6,0.5,1.2,1,1.5,1.8
		c0.4,0.7,0.6,1.6,0.6,2.6c0,1.3-0.3,2.3-0.9,3.2c-0.6,0.9-1.3,1.6-2.2,2.1c-0.9,0.5-1.9,0.9-3,1.2c-1.1,0.2-2.2,0.4-3.3,0.4
		c-1.3,0-2.6-0.1-3.7-0.4c-1.1-0.3-2.1-0.8-2.9-1.4c-0.8-0.6-1.5-1.4-2-2.3c-0.5-0.9-0.7-2-0.8-3.2H134.9z"/>
	<path class="st4" d="M152.6,10.9h4.7V32h-4.7V10.9z M152.6,2.8h4.7v4.4h-4.7V2.8z"/>
	<path class="st4" d="M162.3,10.9h4.4V14l0.1,0.1c0.7-1.2,1.6-2.1,2.8-2.8s2.4-1,3.8-1c2.3,0,4.1,0.6,5.5,1.8c1.3,1.2,2,3,2,5.4V32
		h-4.6V18.7c-0.1-1.7-0.4-2.9-1.1-3.6c-0.7-0.7-1.7-1.1-3.1-1.1c-0.8,0-1.5,0.1-2.1,0.4c-0.6,0.3-1.2,0.7-1.6,1.2
		c-0.4,0.5-0.8,1.1-1,1.8c-0.2,0.7-0.4,1.4-0.4,2.2V32h-4.6V10.9z"/>
	<path class="st4" d="M200.2,19.6c-0.1-0.7-0.2-1.4-0.5-2.1c-0.3-0.7-0.6-1.3-1.1-1.8c-0.4-0.5-1-0.9-1.6-1.2
		c-0.6-0.3-1.4-0.5-2.1-0.5c-0.8,0-1.6,0.1-2.2,0.4c-0.7,0.3-1.2,0.7-1.7,1.2c-0.5,0.5-0.9,1.1-1.1,1.8c-0.3,0.7-0.4,1.4-0.5,2.2
		H200.2z M189.4,22.6c0,0.8,0.1,1.6,0.3,2.4c0.2,0.8,0.6,1.4,1,2c0.5,0.6,1,1,1.8,1.4c0.7,0.3,1.6,0.5,2.5,0.5
		c1.4,0,2.5-0.3,3.3-0.9c0.8-0.6,1.4-1.5,1.9-2.6h4.4c-0.2,1.1-0.7,2.2-1.3,3.1c-0.6,0.9-1.3,1.7-2.2,2.3c-0.8,0.6-1.8,1.1-2.8,1.4
		c-1,0.3-2.1,0.5-3.3,0.5c-1.7,0-3.1-0.3-4.4-0.8c-1.3-0.5-2.4-1.3-3.2-2.3c-0.9-1-1.6-2.1-2-3.5c-0.4-1.4-0.7-2.9-0.7-4.5
		c0-1.5,0.2-2.9,0.7-4.3c0.5-1.3,1.2-2.5,2-3.5c0.9-1,2-1.8,3.2-2.4c1.3-0.6,2.7-0.9,4.2-0.9c1.7,0,3.1,0.3,4.5,1
		c1.3,0.7,2.4,1.6,3.3,2.8c0.9,1.1,1.5,2.5,1.9,3.9c0.4,1.5,0.5,3,0.3,4.6H189.4z"/>
	<path class="st4" d="M211.9,25.2c0.1,1.4,0.7,2.3,1.5,2.9c0.9,0.5,2,0.8,3.2,0.8c0.4,0,0.9,0,1.5-0.1c0.6-0.1,1.1-0.2,1.6-0.4
		s0.9-0.5,1.2-0.8c0.3-0.4,0.5-0.8,0.4-1.4c0-0.6-0.2-1.1-0.7-1.5c-0.4-0.4-0.9-0.7-1.6-0.9c-0.6-0.2-1.4-0.4-2.2-0.6
		c-0.8-0.2-1.6-0.3-2.5-0.5c-0.9-0.2-1.7-0.4-2.5-0.7c-0.8-0.3-1.5-0.6-2.2-1.1c-0.6-0.5-1.2-1.1-1.5-1.8c-0.4-0.7-0.6-1.6-0.6-2.7
		c0-1.1,0.3-2.1,0.8-2.9c0.6-0.8,1.3-1.4,2.1-1.9c0.9-0.5,1.8-0.8,2.9-1c1-0.2,2-0.3,3-0.3c1.1,0,2.1,0.1,3.1,0.3
		c1,0.2,1.9,0.6,2.7,1.1c0.8,0.5,1.5,1.2,2,2c0.5,0.8,0.9,1.8,1,3h-4.9c-0.2-1.1-0.7-1.9-1.5-2.2c-0.8-0.4-1.7-0.6-2.8-0.6
		c-0.3,0-0.7,0-1.2,0.1c-0.4,0.1-0.9,0.2-1.3,0.3c-0.4,0.1-0.7,0.4-1,0.7c-0.3,0.3-0.4,0.7-0.4,1.1c0,0.6,0.2,1,0.6,1.4
		c0.4,0.4,0.9,0.6,1.6,0.9c0.6,0.2,1.4,0.4,2.2,0.6s1.7,0.3,2.5,0.5c0.8,0.2,1.7,0.4,2.5,0.7c0.8,0.3,1.5,0.6,2.2,1.1
		c0.6,0.5,1.2,1,1.5,1.8c0.4,0.7,0.6,1.6,0.6,2.6c0,1.3-0.3,2.3-0.9,3.2c-0.6,0.9-1.3,1.6-2.2,2.1c-0.9,0.5-1.9,0.9-3,1.2
		c-1.1,0.2-2.2,0.4-3.3,0.4c-1.3,0-2.6-0.1-3.7-0.4c-1.1-0.3-2.1-0.8-2.9-1.4c-0.8-0.6-1.5-1.4-2-2.3c-0.5-0.9-0.7-2-0.8-3.2H211.9z
		"/>
	<path class="st4" d="M233.1,25.2c0.1,1.4,0.7,2.3,1.6,2.9c0.9,0.5,2,0.8,3.2,0.8c0.4,0,0.9,0,1.5-0.1c0.6-0.1,1.1-0.2,1.6-0.4
		s0.9-0.5,1.2-0.8c0.3-0.4,0.5-0.8,0.4-1.4c0-0.6-0.2-1.1-0.7-1.5c-0.4-0.4-0.9-0.7-1.6-0.9c-0.6-0.2-1.4-0.4-2.2-0.6
		c-0.8-0.2-1.6-0.3-2.5-0.5c-0.9-0.2-1.7-0.4-2.5-0.7c-0.8-0.3-1.5-0.6-2.2-1.1c-0.6-0.5-1.2-1.1-1.5-1.8c-0.4-0.7-0.6-1.6-0.6-2.7
		c0-1.1,0.3-2.1,0.8-2.9c0.6-0.8,1.3-1.4,2.1-1.9c0.9-0.5,1.8-0.8,2.9-1c1-0.2,2-0.3,3-0.3c1.1,0,2.1,0.1,3.1,0.3
		c1,0.2,1.9,0.6,2.7,1.1c0.8,0.5,1.5,1.2,2,2c0.5,0.8,0.9,1.8,1,3h-4.9c-0.2-1.1-0.7-1.9-1.5-2.2c-0.8-0.4-1.7-0.6-2.8-0.6
		c-0.3,0-0.7,0-1.2,0.1c-0.4,0.1-0.9,0.2-1.3,0.3c-0.4,0.1-0.7,0.4-1,0.7c-0.3,0.3-0.4,0.7-0.4,1.1c0,0.6,0.2,1,0.6,1.4
		c0.4,0.4,0.9,0.6,1.5,0.9c0.6,0.2,1.4,0.4,2.2,0.6s1.7,0.3,2.5,0.5c0.8,0.2,1.7,0.4,2.5,0.7c0.8,0.3,1.5,0.6,2.2,1.1
		c0.6,0.5,1.2,1,1.5,1.8c0.4,0.7,0.6,1.6,0.6,2.6c0,1.3-0.3,2.3-0.9,3.2c-0.6,0.9-1.3,1.6-2.2,2.1c-0.9,0.5-1.9,0.9-3,1.2
		c-1.1,0.2-2.2,0.4-3.3,0.4c-1.3,0-2.6-0.1-3.7-0.4c-1.1-0.3-2.1-0.8-2.9-1.4c-0.8-0.6-1.5-1.4-2-2.3c-0.5-0.9-0.7-2-0.8-3.2H233.1z
		"/>
	<path class="st1" d="M140.7,52.5v5.3c0,2.8,2,5.2,4.5,5.2h5.7V52.5H140.7z"/>
	<path class="st1" d="M151,42.3h-5.7c-2.5,0-4.5,2.3-4.5,5.2v5H151V42.3z"/>
	<path class="st1" d="M161.3,47.5c0-2.8-2-5.2-4.5-5.2H151v10.4h10.3V47.5z"/>
	<path class="st2" d="M151,52.7V63h5.8c2.5,0,4.5-2.3,4.5-5.2v-5.1H151z"/>
	<polygon class="st2" points="148.4,47.1 148.4,47.7 146.2,47.7 146.2,50 145.5,50 145.5,47.7 143.3,47.7 143.3,47.1 145.5,47.1 
		145.5,44.8 146.2,44.8 146.2,47.1 	"/>
	<polygon class="st2" points="147.9,59.3 147.4,59.8 145.9,58.2 144.3,59.8 143.8,59.3 145.4,57.7 143.8,56.2 144.3,55.7 
		145.9,57.2 147.4,55.7 147.9,56.1 146.4,57.7 	"/>
	<rect x="153.7" y="47.1" class="st2" width="4.9" height="0.8"/>
	<path class="st3" d="M158.6,59.2h-4.9v-0.7h4.9V59.2z M153.7,56.4h4.9v0.7h-4.9V56.4z"/>
</g>
</svg>
