<?xml version="1.0" encoding="utf-8"?>
<!-- Generator: Adobe Illustrator 25.0.0, SVG Export Plug-In . SVG Version: 6.00 Build 0)  -->
<svg version="1.1" id="Layer_1" xmlns="http://www.w3.org/2000/svg" xmlns:xlink="http://www.w3.org/1999/xlink" x="0px" y="0px"
	 viewBox="0 0 22.6 22.6" style="enable-background:new 0 0 22.6 22.6;" xml:space="preserve">
<style type="text/css">
	.st0{fill:#FFFFFF;}
</style>
<path class="st0" d="M18.6,12.4c-0.4,0-0.8-0.3-0.8-0.8s0.3-0.8,0.8-0.8s0.8,0.3,0.8,0.8S19,12.4,18.6,12.4z M18.2,15.8
	c-0.2,0.4-0.7,0.5-1,0.3c-0.4-0.2-0.5-0.7-0.3-1c0.2-0.4,0.7-0.5,1-0.3C18.3,15,18.4,15.5,18.2,15.8z M15.5,5.4
	c-0.2,0.4-0.7,0.5-1,0.3c-0.4-0.2-0.5-0.7-0.3-1c0.2-0.4,0.7-0.5,1-0.3C15.5,4.6,15.7,5.1,15.5,5.4z M15.2,18.9
	c-0.4,0.2-0.8,0.1-1-0.3c-0.2-0.4-0.1-0.8,0.3-1c0.4-0.2,0.8-0.1,1,0.3S15.5,18.7,15.2,18.9z M11,4.8c-0.4,0-0.8-0.3-0.8-0.8
	c0-0.4,0.3-0.8,0.8-0.8c0.4,0,0.8,0.3,0.8,0.8C11.8,4.5,11.4,4.8,11,4.8z M11,20c-0.4,0-0.8-0.3-0.8-0.8s0.3-0.8,0.8-0.8
	c0.4,0,0.8,0.3,0.8,0.8S11.4,20,11,20z M7.8,18.6c-0.2,0.4-0.7,0.5-1,0.3c-0.4-0.2-0.5-0.7-0.3-1c0.2-0.4,0.7-0.5,1-0.3
	C7.9,17.8,8.1,18.3,7.8,18.6z M6.4,9.7l0.7-1.3l4.5,2.7v6.6h-1.5v-5.9L6.4,9.7z M6.8,4.4c0.4-0.2,0.8-0.1,1,0.3
	c0.2,0.4,0.1,0.8-0.3,1c-0.4,0.2-0.8,0.1-1-0.3C6.3,5.1,6.4,4.6,6.8,4.4z M5.1,8.2C4.9,8.6,4.4,8.7,4,8.5c-0.4-0.2-0.5-0.7-0.3-1
	C4,7.1,4.4,7,4.8,7.2C5.2,7.4,5.3,7.9,5.1,8.2z M4.8,16.1c-0.4,0.2-0.8,0.1-1-0.3c-0.2-0.4-0.1-0.8,0.3-1c0.4-0.2,0.8-0.1,1,0.3
	C5.3,15.4,5.2,15.9,4.8,16.1z M2.6,11.7c0-0.4,0.3-0.8,0.8-0.8s0.8,0.3,0.8,0.8s-0.3,0.8-0.8,0.8S2.6,12.1,2.6,11.7z M17.2,7.2
	c0.4-0.2,0.8-0.1,1,0.3c0.2,0.4,0.1,0.8-0.3,1c-0.4,0.2-0.8,0.1-1-0.3C16.7,7.9,16.8,7.4,17.2,7.2z M18,4.7c-3.9-3.9-10.1-3.9-14,0
	c-3.9,3.9-3.9,10.1,0,14c3.9,3.9,10.1,3.9,14,0C21.8,14.8,21.8,8.5,18,4.7z"/>
</svg>
