<?xml version="1.0" encoding="utf-8"?>
<!-- Generator: Adobe Illustrator 25.0.0, SVG Export Plug-In . SVG Version: 6.00 Build 0)  -->
<svg version="1.1" id="Layer_1" xmlns="http://www.w3.org/2000/svg" xmlns:xlink="http://www.w3.org/1999/xlink" x="0px" y="0px"
	 viewBox="0 0 25.3 25.3" style="enable-background:new 0 0 25.3 25.3;" xml:space="preserve">
<style type="text/css">
	.st0{fill:#FFFFFF;}
</style>
<path class="st0" d="M23.3,6.1l-5.9,6c0,0,0,0.1,0,0.2l4.1,4.4c0.3,0.3,0.3,0.7,0,1c-0.1,0.1-0.3,0.2-0.5,0.2s-0.4-0.1-0.5-0.2
	l-4.1-4.3c0,0-0.1,0-0.2,0l-1,1c-0.8,0.8-1.9,1.3-3.1,1.3c-1.2,0-2.3-0.5-3.2-1.4l-1-1c0,0-0.1,0-0.2,0l-4.1,4.3
	c-0.1,0.1-0.3,0.2-0.5,0.2s-0.4-0.1-0.5-0.2c-0.3-0.3-0.3-0.7,0-1l4.1-4.4c0,0,0-0.1,0-0.2L1,6.1C1,6,0.8,6.1,0.8,6.2v11.9
	c0,1,0.8,1.7,1.7,1.7h19.2c1,0,1.7-0.8,1.7-1.7V6.2C23.5,6.1,23.4,6,23.3,6.1z"/>
<path class="st0" d="M12.2,14.1c0.8,0,1.6-0.3,2.1-0.9l8.5-8.7c-0.3-0.2-0.7-0.4-1.1-0.4H2.6c-0.4,0-0.8,0.1-1.1,0.4l8.5,8.7
	C10.6,13.8,11.4,14.1,12.2,14.1z"/>
</svg>
