<?xml version="1.0" encoding="utf-8"?>
<!-- Generator: Adobe Illustrator 25.0.0, SVG Export Plug-In . SVG Version: 6.00 Build 0)  -->
<svg version="1.1" id="Layer_1" xmlns="http://www.w3.org/2000/svg" xmlns:xlink="http://www.w3.org/1999/xlink" x="0px" y="0px"
	 viewBox="0 0 22.6 22.6" style="enable-background:new 0 0 22.6 22.6;" xml:space="preserve">
<style type="text/css">
	.st0{fill:#FFFFFF;}
</style>
<path class="st0" d="M20.3,16.4c-0.7-0.7-2.4-1.8-3.2-2.2c-1-0.5-1.3-0.5-2,0c-0.6,0.4-0.9,0.8-1.6,0.6c-0.7-0.1-1.9-1.1-3.2-2.4
	C9,11.3,8.1,10,7.9,9.3c-0.1-0.7,0.2-1,0.6-1.6c0.5-0.7,0.5-1,0-2C8.2,4.9,7.2,3.2,6.5,2.5C5.8,1.8,5.6,2,5.2,2.1
	c0,0-0.6,0.2-1.1,0.6C3.4,3.2,3,3.6,2.7,4.2c-0.3,0.6-0.6,1.7,1,4.5C5,11,6.3,12.8,8.2,14.6c0,0,0,0,0,0c0,0,0,0,0,0
	c1.9,1.9,3.6,3.2,5.9,4.4c2.9,1.6,3.9,1.3,4.5,1c0.6-0.3,1-0.7,1.4-1.4c0.4-0.6,0.6-1.1,0.6-1.1C20.8,17.2,21,17.1,20.3,16.4z"/>
</svg>
