<svg xmlns="http://www.w3.org/2000/svg" xmlns:xlink="http://www.w3.org/1999/xlink" width="700.906" height="705.285" viewBox="0 0 700.906 705.285"><defs><clipPath id="a"><rect width="700.906" height="705.285" fill="none"/></clipPath><clipPath id="b"><rect width="700.907" height="705.286" fill="none"/></clipPath><clipPath id="c"><path d="M681.424,348.079C613,352.632,613.3,428.006,613.3,428.006v360.18H880.4V428.006s1.265-75.628,67.787-79.927Z" transform="translate(-613.303 -348.079)" fill="none"/></clipPath><linearGradient id="d" x1="-0.339" y1="1.155" x2="-0.339" y2="1.155" gradientUnits="objectBoundingBox"><stop offset="0" stop-color="#ff9f55"/><stop offset="1" stop-color="#ffd255"/></linearGradient><clipPath id="f"><rect width="222.403" height="257.902" fill="none"/></clipPath><clipPath id="g"><rect width="221.826" height="109.297" fill="none"/></clipPath></defs><g clip-path="url(#a)"><g transform="translate(0 0)"><g clip-path="url(#b)"><path d="M975.877,360.774H709.112c-68.423,4.553-68.121,79.928-68.121,79.928v360.18h267.1V440.7s1.265-75.628,67.786-79.928" transform="translate(-394.084 -221.805)" fill="#e8913a"/><rect width="3.082" height="277.217" transform="translate(228.293 223.449)" fill="#ffc155"/><path d="M1132.079,106.995H969.142V16.735h162.937Zm-159.855-3.082H1129v-84.1H972.224Z" transform="translate(-595.833 -10.288)" fill="#ffc155"/><path d="M340.607,314.242H177.67V200.712H340.607Zm-159.855-3.082H337.525V203.794H180.752Z" transform="translate(-109.232 -123.398)" fill="#ffc155"/><path d="M1539.2,820.781H1376.259v-90.6H1539.2ZM1379.34,817.7h156.774V733.266H1379.34Z" transform="translate(-846.13 -448.92)" fill="#ffc155"/></g></g><g transform="translate(236.242 134.078)"><g clip-path="url(#c)"><rect width="480.696" height="536.183" transform="matrix(0.92, -0.391, 0.391, 0.92, -158.807, 67.409)" fill="url(#d)"/></g></g><g transform="translate(0 0)"><g clip-path="url(#b)"><rect width="183.463" height="16.188" transform="translate(271.315 228.171)" fill="#ffba2c"/><rect width="156.651" height="11.466" transform="translate(271.315 265.605)" fill="#ffba2c"/><rect width="78.747" height="17.031" transform="translate(271.315 295.873)" fill="#ffba2c"/><rect width="81.445" height="17.031" transform="translate(373.332 295.873)" fill="#ffba2c"/><rect width="125.456" height="12.141" transform="translate(271.315 328.67)" fill="#ffba2c"/><rect width="141.349" height="6.745" transform="translate(271.315 359.023)" fill="#ffba2c"/><rect width="169.973" height="6.745" transform="translate(271.315 389.375)" fill="#ffba2c"/><path d="M782.76,1126.4h-79.9v-38.253h79.9Zm-78.747-1.156H781.6V1089.3H704.013Z" transform="translate(-432.12 -668.997)" fill="#ffba2c"/><rect width="71.497" height="8.769" transform="translate(369.791 419.727)" fill="#ffba2c"/><rect width="50.676" height="8.769" transform="translate(369.791 438.276)" fill="#ffba2c"/><rect width="152.858" height="6.745" transform="translate(271.315 480.432)" fill="#ffba2c"/><rect width="80.518" height="6.745" transform="translate(271.315 510.784)" fill="#ffba2c"/><path d="M1472.215,849.152l-7.877-12.9a2.244,2.244,0,1,1,3.83-2.339l5.571,9.12,14.808-8.765a2.244,2.244,0,1,1,2.286,3.862Z" transform="translate(-900.079 -512.034)" fill="#ffca55"/><path d="M1453.829,836.368a28.329,28.329,0,1,1,28.329-28.329,28.361,28.361,0,0,1-28.329,28.329m0-52.611a24.282,24.282,0,1,0,24.282,24.282,24.309,24.309,0,0,0-24.282-24.282" transform="translate(-876.404 -479.369)" fill="#ffca55"/><path d="M1065.042,96.153l.554,11.906,4.726-.22-.93-19.974-20.4.949.22,4.726,12.33-.574-21.735,23.857L1017.2,96.22l-3.186,3.5,26.112,23.79Z" transform="translate(-623.417 -54.02)" fill="#ffca55"/><path d="M272.008,275.422a10.7,10.7,0,0,0-2.038-1.664,23.536,23.536,0,0,0-3.117-1.706,25.585,25.585,0,0,0-3.889-1.4,22.442,22.442,0,0,0-4.353-.747l-.052,15.958,1.464.313a68.085,68.085,0,0,1,7.509,2.26,21.4,21.4,0,0,1,5.657,3.025,12.246,12.246,0,0,1,3.571,4.367,14.119,14.119,0,0,1,1.252,6.288,15.3,15.3,0,0,1-1.488,6.972,13.6,13.6,0,0,1-4.063,4.8,18.158,18.158,0,0,1-6.023,2.872,29.3,29.3,0,0,1-7.366,1.017l-.026,8.095-4.009-.013.027-8.249a38.851,38.851,0,0,1-10.555-2.231,33.24,33.24,0,0,1-9.157-5.08l3.956-7.388a13.639,13.639,0,0,0,2.461,2.013,28.162,28.162,0,0,0,3.771,2.094,34.813,34.813,0,0,0,4.736,1.788,30.32,30.32,0,0,0,5.354,1.1l.052-15.958q-.462-.155-.963-.273c-.334-.078-.654-.168-.963-.273a65.065,65.065,0,0,1-7.124-2.3,17.8,17.8,0,0,1-5.04-2.908,11.328,11.328,0,0,1-3.032-3.98,13.186,13.186,0,0,1-1.023-5.516,16.266,16.266,0,0,1,1.333-6.7,14.688,14.688,0,0,1,3.717-5.037,17.621,17.621,0,0,1,5.6-3.3,26.039,26.039,0,0,1,7.059-1.48l.025-7.787,4.009.013-.025,7.786a29.7,29.7,0,0,1,9.245,2.035,33.476,33.476,0,0,1,7.465,4.11Zm-25.448,1.921a5.57,5.57,0,0,0,2.259,4.865,21.95,21.95,0,0,0,6.89,2.875l.049-15.187q-4.7.215-6.945,2.174a6.679,6.679,0,0,0-2.253,5.274m22.2,25.668a5.706,5.706,0,0,0-2.681-5.136,28.971,28.971,0,0,0-7.545-3.147l-.05,15.264q4.933-.059,7.6-1.825a5.819,5.819,0,0,0,2.677-5.157" transform="translate(-144.695 -156.405)" fill="#ffca55"/><rect width="63.993" height="9.106" transform="translate(151.761 109.633)" fill="#ded4ce"/><rect width="50.297" height="9.106" transform="translate(151.761 129.526)" fill="#ded4ce"/><rect width="56.437" height="9.106" transform="translate(151.761 149.419)" fill="#ded4ce"/><rect width="45.724" height="9.106" transform="translate(617.499 312.064)" fill="#ded4ce"/><rect width="51.306" height="9.106" transform="translate(617.499 331.956)" fill="#ded4ce"/><rect width="58.175" height="9.106" transform="translate(460.679 27.131)" fill="#ded4ce"/><rect width="45.724" height="9.106" transform="translate(460.679 47.024)" fill="#ded4ce"/><rect width="51.306" height="9.106" transform="translate(460.679 66.917)" fill="#ded4ce"/><path d="M1407.8,1028.773h-49.43v-3.082h46.348V970.575h3.081Z" transform="translate(-835.133 -596.713)" fill="#ded4ce"/><path d="M866.285,290.466H863.2V274.432H970.449V263.153h3.081v14.36H866.285Z" transform="translate(-530.701 -161.787)" fill="#ded4ce"/><path d="M470.32,631.4H414.061V510.049h3.082V628.321H470.32Z" transform="translate(-254.566 -313.58)" fill="#ded4ce"/><path d="M1353.432,509.065h-3.082V472.389c-.043-.609-3.954-70.959,55.407-81.193l.523,3.037c-56.659,9.769-52.9,77.375-52.852,78.056Z" transform="translate(-830.161 -240.509)" fill="#ffc155"/><path d="M1708.153,775.978h-3.082v-62.2H1638.32V710.7h69.833Z" transform="translate(-1007.246 -436.94)" fill="#ffc155"/><path d="M218.507,424.164h-63.38V364.448h3.082v56.634h60.3Z" transform="translate(-95.372 -224.064)" fill="#ffc155"/><path d="M953.112,47.023H950.03V0h78.655V3.08H953.112Z" transform="translate(-584.083 0.001)" fill="#ffc155"/><path d="M1270.289,1386.291H1212.6v-3.082h54.611v-87.492h3.082Z" transform="translate(-745.51 -796.612)" fill="#ffc155"/><path d="M1167.531,1292.006h-50.236V1241.77h50.236Zm-45.614-4.622h40.992v-40.992h-40.992Z" transform="translate(-686.918 -763.445)" fill="#ffba2c"/><path d="M1156.4,1281.312l-17.643-16.632,5.284-5.606,12.708,11.981,27.732-22.786,4.891,5.952Z" transform="translate(-700.115 -767.44)" fill="#ffba2c"/><g transform="translate(236.242 316.284)" opacity="0.24" style="mix-blend-mode:hard-light;isolation:isolate"><g clip-path="url(#f)"><path d="M817.3,888.772a136,136,0,0,0-204-36.615v31.172a113.631,113.631,0,0,1,200,69.385c.051,1.406.081,2.8.081,4.209A113.614,113.614,0,0,1,613.3,1030.7v31.2A134.4,134.4,0,0,0,639.84,1079H759.721q4.2-2.064,8.306-4.451A135.9,135.9,0,0,0,817.3,888.772" transform="translate(-613.302 -821.097)" fill="#3f444f"/></g></g><rect width="219.639" height="37.341" transform="matrix(0.768, -0.64, 0.64, 0.768, 0, 676.6)" fill="#ff7e55"/><rect width="11.732" height="28.342" transform="translate(171.607 539.44) rotate(-39.808)" fill="#e66947"/><path d="M412.021,1025.271A135.906,135.906,0,1,0,461.3,839.5a135.906,135.906,0,0,0-49.276,185.776m19.3-11.208a113.588,113.588,0,1,1,211.756-61.353v0a113.6,113.6,0,0,1-211.755,61.351" transform="translate(-241.998 -504.811)" fill="#494f5c"/><g transform="translate(179.252 338.603)" opacity="0.3"><g clip-path="url(#g)"><path d="M465.352,958.379s118.3-89.826,221.825,29.957h0a113.6,113.6,0,0,0-221.825-29.956" transform="translate(-465.352 -879.04)" fill="#c2c2c2"/></g></g><path d="M1243.109,1313.064a21.628,21.628,0,0,1-4.523,1.166c-1.966.193-4.817,2.248-5.544,3.142s-6.676,7.282-6.78,8.1,1.521.544,2.067-.1,5.736-5.79,5.736-5.79-5.823,6.482-5.785,7.242.913,1.41,1.989.738a1.343,1.343,0,0,0,2.373.235l3.031-3.026s-1.282,1.846.4,1.316c.9-.282,3.9-4.1,4.735-4.665s4.052-5.455,4.052-5.455Z" transform="translate(-753.908 -807.277)" fill="#eea886"/><path d="M1291.168,1639.095s-2.215,4.429-3.557,5.3-8.859,8.188-10.4,8.859-6.51,1.611-6.443,3.96,12.818,1.611,15.3.738,6.644-6.51,8.322-6.443,1.073,6.913,1.073,6.913h1.813s2.281-7.249,2.214-9.8a91.953,91.953,0,0,0-1.476-9.53Z" transform="translate(-781.271 -1007.722)" fill="#162d40"/><path d="M1376.65,1631.952s-.974,4.385-2.575,5.917-7.605,8.005-9.128,8.7-4.446,1.183-5.351,2.3-.366,4.385,5.351,4.037,7.579-.3,8.936-1.444,5.743-5.116,7.048-5.221v6.317h1.567s2.766-8.3,1.774-11.8a35.005,35.005,0,0,1-.939-8.249Z" transform="translate(-835.67 -1003.331)" fill="#162d40"/><path d="M1398.535,1136.912s2.607,6.712.579,11.9c0,0,9.558-.605,9.92-1.691s-.384-11.143.93-14.116-11.429,3.907-11.429,3.907" transform="translate(-859.826 -696.118)" fill="#eea886"/><path d="M1440.95,1374.266a7.347,7.347,0,0,0-.47,2.545,12.053,12.053,0,0,1-.591,3.014,28.141,28.141,0,0,0-.5,4.919,21.3,21.3,0,0,1,1.142,2.974c.012.694-.137,2.107.469,2.068s1.089-1.275,1.089-1.275a.866.866,0,0,0,.591.759,1.491,1.491,0,0,0,1.5-.266s.475.6.941.6a1.9,1.9,0,0,0,1.445-.523,1.746,1.746,0,0,0,1.186.125,1.6,1.6,0,0,0,1.111-1.06s1.151-.01,1.383-.61a5.367,5.367,0,0,0,.13-1.66,18.431,18.431,0,0,0-2.765-7.626,8.208,8.208,0,0,1-.982-6.336Z" transform="translate(-884.932 -843.458)" fill="#eea886"/><path d="M1433.746,1418.764l-1.185-8.172a2.414,2.414,0,0,1,2.041-2.732l12.958-1.88a2.414,2.414,0,0,1,2.733,2.04l1.185,8.171a2.414,2.414,0,0,1-2.041,2.732l-12.958,1.88a2.415,2.415,0,0,1-2.733-2.041m1.088-9.3a.794.794,0,0,0-.671.9l1.185,8.171a.794.794,0,0,0,.9.671l12.958-1.879a.794.794,0,0,0,.671-.9l-1.185-8.172a.794.794,0,0,0-.9-.671Z" transform="translate(-880.729 -864.387)" fill="#0e1e2b"/><rect width="48.336" height="35.197" transform="translate(538.104 554.774) rotate(-8.252)" fill="#eddad3"/><path d="M1445.342,1403.784s-.764-3.865.1-4.909,1.215.334,1.215.334-.373-1.357.689-1.781,1.391,1.214,1.391,1.214a1.139,1.139,0,0,1,1.185-1.136c1.188-.029,1.146,1.395,1.146,1.395s.87-1.575,1.8-.444c1.574,1.91.853,4.722.853,4.722s-.239.661-1.383.609a1.577,1.577,0,0,1-2.3.934s-1.516,1.3-2.385-.074a1.373,1.373,0,0,1-2.313-.865" transform="translate(-888.41 -859.102)" fill="#db9c7c"/><path d="M1371.106,1168.064s-5.648,1.955-8.2,2.5-7.892,3-7.458,12.273a188.914,188.914,0,0,0,2.607,21.288c.579,3.983.218,14.12-.724,19.044a73.5,73.5,0,0,0,29.47,0s-2.824-8.4-2.751-10.572,9.413-20.057,9.847-22.881,2.317-15.278-1.955-18.03-7.748-2.389-9.558-3.62-8.636-.883-11.278,0" transform="translate(-833.32 -717.64)" fill="#eb4747"/><path d="M1308.438,1175.233s-6.234-.171-10.65,9.6-5.5,15.5-6.517,16.871-4.562,6.734-8.038,9.341-17.946,17.29-17.946,17.29l3.972,5.084s20.854-14.771,23.026-17.3,15.364-21.723,16.154-24.619,6.885-13.272,0-16.266" transform="translate(-777.904 -722.538)" fill="#eb4747"/><path d="M1451.613,1227.246c.039,3.91-4.021,30.592-4.021,30.592l-7.672.326s2.461-26.465,3.33-32.547a30.788,30.788,0,0,0-.393-7.623v0c-.274-1.931-.637-3.962-1.021-5.9-1.058-5.361-2.279-10.04-2.279-10.04s-6.914-22.781,3.71-21.11a25.858,25.858,0,0,1,4.87,11.226c1.194,6.842,2.389,17.052,2.172,21.071s1.276,11.135,1.3,14.011" transform="translate(-883.686 -725.992)" fill="#eb4747"/><path d="M1336.8,1304.926a65.035,65.035,0,0,0-2.679,7.291c-.217,1.471-7.935,20.685-8.472,26.307-.543,5.683-2.172,20.853-2.752,23.026s1.3,11.875,1.593,14.047.145,37.652-2.462,55.175c0,0,6.082,2.607,10.717,0,0,0,7.675-27.37,7.241-43.155s-2.437-22.447.013-28.818,16.786-25.488,18.234-27.515,10.52-13.232,1.929-25.37-23.363-.987-23.363-.987" transform="translate(-812.789 -799.399)" fill="#1d3b54"/><path d="M1397.176,1355.51c-.762,5.07.039,11.73,1.631,30.268s-2.787,40.982-2.787,40.982c-5.5,1.883-11.839,0-11.839,0,.145-1.3,0-45.183,0-49.093s-1.123-8.348-1.412-12.836c-.2-3.058-1.621-8.7-3.221-14.454-.48-1.725-.975-3.458-1.458-5.137v0c-.271-.94-.537-1.866-.795-2.761-2.255-7.82-5.287-38.017-5.287-38.017s16.807-13.538,24.989-.793,3.982,22.012,3.693,23.6-2.753,23.171-3.515,28.239" transform="translate(-843.517 -798.14)" fill="#1d3b54"/><path d="M1350.107,1213.2s1.131,22.8-4.3,35.945c0,0,17.921,5.974,41.055,0,0,0-4.958-16.346-4.562-18.844s9.055-31.315,6.392-38.095-35.915-.4-38.586,20.994" transform="translate(-827.409 -731.382)" fill="#eb4747"/><path d="M1390.533,1075.587c-4.035-.457-14.482.362-13.685,16.075s6.517,14.771,12.237,13.106,12.527-13.83,12.527-17.089.434-10.789-11.078-12.092" transform="translate(-846.466 -661.222)" fill="#eea886"/><path d="M1378.42,1082.091s4.546,5.8,9.116,7.184c0,0,3.518,6.29,9.656,7.894,0,0,13.089-12.517,2.082-21.93s-20.926,2.049-20.854,6.853" transform="translate(-847.459 -658.846)" fill="#fccca2"/><path d="M1399.554,1109.355c.152-.858,2.059-2.607,3.527-.652s-1.21,6.517-2.224,6.517-1.882-2.607-1.3-5.865" transform="translate(-860.338 -681.088)" fill="#eea886"/><path d="M1427.966,1085.939c.328-.5,10.248-4.967,12.312,4.374s-7.99,20.2-9.751,24.872,0,15.749,0,15.749-5.254-5.7-7.084-11.524c-2.01-6.4-2.684-22.529,4.523-33.471" transform="translate(-874.307 -666.716)" fill="#fccca2"/><path d="M1399.915,1376.279c-.13.289-8.5,18.877-10.659,22.1-.48-1.725-.975-3.458-1.457-5.137v0s11.836-16.552,12.117-16.961" transform="translate(-853.224 -846.142)" fill="#162d40"/><path d="M1451.773,1228.009s-.263,11.823-1.751,18.977c-.274-1.931-.636-3.963-1.021-5.9.06-.267,2.483-11.224,2.771-13.073" transform="translate(-890.853 -754.985)" fill="#ab3434"/><path d="M675.542,1385a6.681,6.681,0,0,1,1.386,1.9,10.968,10.968,0,0,0,1.669,2.24,25.624,25.624,0,0,1,2.346,3.84,19.43,19.43,0,0,0,.232,2.889c.263.574.941,1.674.428,1.88s-1.4-.618-1.4-.618a.788.788,0,0,1-.186.855,1.143,1.143,0,0,1-1.377.187s-.109.865-.493,1.044a1.319,1.319,0,0,1-1.381-.044,1.534,1.534,0,0,1-.934.752,1.352,1.352,0,0,1-1.3-.553s-.941.406-1.366.006a4.373,4.373,0,0,1-.791-1.153,16.776,16.776,0,0,1-.728-7.344,6.648,6.648,0,0,0-1.889-5.39Z" transform="translate(-411.77 -851.506)" fill="#eea886"/><path d="M681.711,1425.28h-13.3a2.452,2.452,0,0,1-2.449-2.449v-8.386a2.452,2.452,0,0,1,2.449-2.449h13.3a2.452,2.452,0,0,1,2.449,2.449v8.386a2.452,2.452,0,0,1-2.449,2.449m-13.3-11.641a.807.807,0,0,0-.806.806v8.386a.807.807,0,0,0,.806.806h13.3a.806.806,0,0,0,.806-.806v-8.386a.806.806,0,0,0-.806-.806Z" transform="translate(-409.437 -868.101)" fill="#0e1e2b"/><rect width="49.896" height="35.748" transform="translate(240.677 553.58)" fill="#ffcc63"/><path d="M628.243,1188.8s-2.556.036-3.646,7.678.976,10.836,1.222,14.016,3.977,23.72,4.078,24.627.6,11.838,2.057,14.74,12.148,19.341,12.291,20.162,5.192-2.864,5.192-2.864-8.4-17.585-8.888-19.591-3.869-12.251-3.334-15.379-1.5-20.38-1.3-22.3-2.773-19.922-7.67-21.088" transform="translate(-383.811 -730.879)" fill="#eea886"/><path d="M627.968,1188.8s-2.556.036-3.646,7.678a31.253,31.253,0,0,0,.554,13.706c.622,3.128,2.743,22.265,2.844,23.173s2.639,12.445,3.958,16.5c1,3.086,10.538,19.243,10.681,20.064s7.413-3.775,7.413-3.775-9.323-18.189-9.81-20.2-2.065-8.952-2.116-12.125c-.06-3.727-2.4-22.021-2.208-23.941s-.539-18.475-7.67-21.088" transform="translate(-383.536 -730.879)" fill="#285173"/><path d="M568.317,1651.241s4.451,6.61,6.244,8.2c0,0,4.128,1.445,4.384,4.251.167,1.836.007,4.784-4.709,4.917s-7.743-1.514-8.607-4.371a8.626,8.626,0,0,0-2.494-4.133v5.979h-1.063s-.266-5.779-.332-6.842-.763-5.149,1.478-6.959a6.221,6.221,0,0,1,5.1-1.046" transform="translate(-345.266 -1015.092)" fill="#eddad3"/><path d="M644.778,1635.385A19.079,19.079,0,0,0,647,1639.1c1.067,1.392,4.384,7.107,5.846,7.506s5.979,1.2,6.377,3.72.6,4.318-3.853,4.517-7.373.465-9.5-2.657a23.151,23.151,0,0,0-5.514-5.38v8.146h-1.727s-.8-8.478-1.262-9.076-1.661-7.107,2.457-10.5,4.949,0,4.949,0" transform="translate(-391.536 -1004.516)" fill="#eddad3"/><path d="M555.862,1316.539s-5.62,7.307-7.144,15.976.9,37.764.834,42.048-4.052,14.945-3.255,23.017,7.457,47.577,7.457,47.577l5.1-1.046s-.5-40.952,0-44.34,1.5-15.736,1.7-17.131,12.651-38.025,12.651-44.275-3.787-32.024-17.338-21.827" transform="translate(-335.801 -807.963)" fill="#eea886"/><path d="M613.748,1324.8s9.233,35.239,10.329,40.122,2.684,8.909,2.684,10.982c0,4.81-1.787,12.533-1.787,12.533l-6.277,55.8h-4.949s-3.122-32.583-3.62-39.159,3.587-16.74,2.591-19.529-16.042-34.974-16.042-34.974-11.393-36,17.072-25.774" transform="translate(-365.455 -813.367)" fill="#eea886"/><path d="M577.932,1660.038a7.369,7.369,0,0,1-7.4-.639,14.385,14.385,0,0,1-4.71-6.858l5.1-1.046Z" transform="translate(-347.871 -1015.347)" fill="#eea886"/><path d="M656.115,1647.584s-3.986,1-5.513,0-6.722-9.775-8.443-10.3c0,0,1.667-3.382,5.885-.924,0,0,6.942,9.765,8.071,11.226" transform="translate(-394.802 -1005.49)" fill="#eea886"/><path d="M596.888,1377.556s-16.965,9.985-48.763,9.985c0,0-1.8-36.88,2.822-47.256s35.313-3.923,35.313-3.923,9.536,33.565,10.628,41.194" transform="translate(-336.778 -820.382)" fill="#1d3b54"/><path d="M576,1181.24a51.612,51.612,0,0,0,6.643,2.671c1.712.342,8.356,8.972,9.52,12.122s0,7.877-2.4,13.423-.137,7.4-1.233,12.944-2.055,17.293-1.849,20.375-27.7,3.664-34.07-1.952c0,0,6.4-9.588,7.223-10.958s.137-8.835-.616-10.752-5.767-18.225-5.767-18.225-4.1-12.524-.4-15.4c3.219-2.5,11.992-3.39,13.567-3.939s6.157-.786,9.376-.307" transform="translate(-339.071 -726.073)" fill="#eddad3"/><path d="M618.958,1189.845l3-3.509-2.6-9.237a60.971,60.971,0,0,0-.394,12.746" transform="translate(-380.45 -723.685)" fill="#d6c5be"/><path d="M586.873,1089.4c2.93-1.031,13.7-3.561,16.231,10.2s-5.068,23.56-12.053,20.957-11.3-12.122-11.711-19.382,3.835-10.478,7.534-11.78" transform="translate(-356.163 -669.234)" fill="#eea886"/><path d="M600.782,1097.812s.527-11.779-11.184-12.19-14.862,9.232-13.9,16.258a17.2,17.2,0,0,0,5.806,10.734s-.421-5.686,1.852-7.162,11.381-4.421,15.354-11.27c0,0,1.841,2.161,2.075,3.63" transform="translate(-353.841 -667.437)" fill="#252e3b"/><path d="M578.656,1096.042c-1.543,4.691-6.118,7.4-10.218,6.052s-6.174-6.245-4.631-10.936,6.118-7.4,10.219-6.052,6.174,6.245,4.631,10.935" transform="translate(-346.317 -666.915)" fill="#252e3b"/><path d="M602.485,1156.107s-.984,9.046-.778,11.991c0,0-5.123,5.134-10.952-5.994a15.279,15.279,0,0,0,.607-10.837c-1.846-6.25,11.123,4.839,11.123,4.839" transform="translate(-363.199 -706.63)" fill="#eea886"/><path d="M609.775,1198.009v4.692l-5.9-4.406Z" transform="translate(-371.267 -736.541)" fill="#eea886"/><path d="M597.857,1192.233l-2.449-3.031-8.247-8.219-2.668,2.569Z" transform="translate(-359.349 -726.073)" fill="#d6c5be"/><path d="M561.688,1183.024s6.921,10.5,7.252,15.126-2.572,39.2-4.9,50.319-19.121-1.253-19.121-1.253,11.287-18.269,6.954-32.9-5.907-20.476-5.907-20.476,1.491-8.146,6.773-9.292c4.632-1.005,8.945-1.526,8.945-1.526" transform="translate(-335.02 -727.328)" fill="#285173"/><path d="M637.555,1200.437s1.249,4.417-3.615,14.18c0,0,.077,12.5.215,16.4s1.061,18.663,1.061,18.663l-4.809,2.817a1.357,1.357,0,0,1-2.033-1.333c1.362-11.234,5.793-53.847-3.778-65.3l3.841,1.132s6.823,5.584,9.119,13.443" transform="translate(-384.004 -729.073)" fill="#285173"/><path d="M593.339,1128.932a1.8,1.8,0,0,0-2.671-.767c-.822.616-1.3,2.465,0,4.863s5.89,4.068,2.671-4.1" transform="translate(-362.65 -693.406)" fill="#eea886"/><path d="M622.813,1186.337l3.775,1.043-6.377-10.28Z" transform="translate(-381.308 -723.686)" fill="#fae6de"/><path d="M596.024,1189.2l-3.448,4.52-7.081-11.8,2.283-.937Z" transform="translate(-359.964 -726.073)" fill="#fae6de"/><path d="M605.4,1165.785l-.169,1.815s-4.073.761-9.4-5.739c0,0,3.777,4.608,9.571,3.924" transform="translate(-366.321 -714.317)" fill="#a77860"/><path d="M671.848,1314.66s2.395,1.542,3.773.681a9.122,9.122,0,0,1,3.845-.868c.842-.044,3.376-1.139,3.441-.079s-4.09,2.008-4.922,2.38,2.83,2.161,3.243,3.014-2.894,6.753-5.265,5.234-3.9-4.705-4.373-4.89a17.307,17.307,0,0,1-1.769-1.037Z" transform="translate(-411.808 -807.811)" fill="#eea886"/><path d="M552.26,1191.1a6.713,6.713,0,0,1,6.2,2.256c2.877,3.082,4.315,8.15,5.068,9.794S573.8,1220,574.35,1220.342s10.222,8.149,14.6,12.327,12.927,8.836,12.927,8.836l-3.219,4.52s-25.956-13.834-29.244-18.9-16.412-19.109-16.412-19.109-7.835-11.806-.747-16.912" transform="translate(-337.707 -732.232)" fill="#eea886"/><path d="M690.745,1327.876s6.952,5.13,7.129,5.86-.123,1.09-.793.637-6.86-4.762-6.86-4.762,7.207,7.454,7.483,8.02c.161.332-.379,1.063-.76.854S689,1331.3,689,1331.3s6.717,6.971,6.806,7.514a.667.667,0,0,1-1.119.539c-.533-.483-7.134-6.6-7.134-6.6s4.57,5.381,4.375,5.885c-.119.308-.556.963-1.692-.463s-4.168-4.507-4.168-4.507Z" transform="translate(-421.796 -816.384)" fill="#eea886"/><path d="M650,1254.154s.23,15.6-.723,23.122l-.422-20.672Z" transform="translate(-398.919 -771.059)" fill="#1d3b54"/><path d="M552.314,1188.292s1.893.319,4.77,3.4,4.315,8.15,5.068,9.794,10.273,16.847,10.821,17.19a121.435,121.435,0,0,1,12.858,9.964c4.384,4.178,12.542,9.169,12.542,9.169l-4.186,6.215s-22.891-12.678-26.521-17.506c-3.878-5.157-17.7-20.3-17.7-20.3s-8.963-13.792,2.353-17.928" transform="translate(-336.047 -730.567)" fill="#285173"/><path d="M683.622,1408.416s-.893-3.472-2.009-3.989-.865.752-.865.752-.227-1.26-1.266-1.19-.664,1.542-.664,1.542a1.036,1.036,0,0,0-1.418-.467c-.986.443-.393,1.6-.393,1.6s-1.333-.95-1.653.345a5.371,5.371,0,0,0,1.156,4.21s.456.448,1.374-.044a1.435,1.435,0,0,0,2.253-.136s1.756.474,1.928-1c0,0,1.9.4,1.557-1.62" transform="translate(-415.145 -863.176)" fill="#db9c7c"/><path d="M589.476,1276.83l-7.836-12.644s6.682,7.889,7.378,8.736.755.909.755.909-.2,2.568-.3,3" transform="translate(-357.595 -777.227)" fill="#1d3b54"/><path d="M804.639,1376.142a40.136,40.136,0,0,0,1.491,4.951c.463,1.219.692,9.215.645,10.25-.039.868-.615.355-.909-.217-.169-.328-.693-3.092-1.2-4.562-.43-1.234-.8-1.7-1.018-1.3A27.008,27.008,0,0,0,803.5,1393c.471,2.2-.02,7.254-1.176,6.523s-3.861-9.881-3.633-13.327a45.171,45.171,0,0,1,1.459-7.766Z" transform="translate(-491.032 -846.058)" fill="#eea886"/><path d="M801.634,1271.188s3.771-25.077,4.772-29.843c.453-2.159,1.7-7.528,2.49-11.938.261-1.453.479-2.949.666-4.414a.012.012,0,0,0,0-.006c.741-5.849.93-11.184.93-11.184s3.271-14.985-6.185-15.909c0,0-2.534.79-2.682,1.831-.572,4-1.877,12.664-1.933,14.716-.045,1.666-2.491,18.48-2.527,19.075-.069,1.155-.636,8.943-.867,12.362-.54,7.984-.743,25.841-.743,25.841Z" transform="translate(-489.111 -736.47)" fill="#2c5396"/><path d="M781.669,1664.505s-3.651,4.076-7.356,4.929-6.3,1.943-6.326,4.282,10.665,3.879,14.906,1.522c6.329-3.518,6.973-2.458,7.674-4.217s-.843-6.462-.8-7.021c.057-.691-8.1.505-8.1.505" transform="translate(-472.162 -1022.902)" fill="#202338"/><path d="M880.575,1667.958s-2.685,3.97-6.277,4.885c-3.542.9-5.837,2.621-6.01,4.895s8.349,5.249,14.339,1.256c3.935-2.623,5.4-2.474,6.2-4.141s-.415-6.339-.336-6.88c.1-.669-7.911-.016-7.911-.016" transform="translate(-533.826 -1025.292)" fill="#202338"/><path d="M803.906,1658.76a16.808,16.808,0,0,0-.41,1.95c.072.04,8.351,1.027,8.1-.505-.2-1.243-.493-2.593-.493-2.593Z" transform="translate(-493.989 -1019.107)" fill="#81807e"/><path d="M900.276,1662.174a18.57,18.57,0,0,0-.11,1.963c.067.044,7.958,1.528,7.911.016a12.327,12.327,0,0,0-.5-2.7Z" transform="translate(-553.417 -1021.471)" fill="#81807e"/><path d="M810.12,1349.857s-3.011,29.24-4.577,39.25c-1.831,11.7-2.452,21.374-2.962,27.432-.642,7.62-.766,45.1-1.216,47.327s9.973.615,9.973.615,5.127-48.972,7.04-57.086c1.781-7.556,8.391-40.085,10.016-38.022s3.64,37.961,4.844,43.92,4.864,52.611,4.864,52.611,8.3,1.652,10.5-.215c0,0,1-40.2.237-51.377-.292-4.258,4.989-51.051-1.783-69.889-3.579-9.955-36.94,5.434-36.94,5.434" transform="translate(-492.674 -824.496)" fill="#292c47"/><path d="M871.682,1251.34s-5.077,1.542-7.2,1.151-1.052-26.478-1.136-31.906c-.064-4.4-2.473-16.028-2.473-16.028a.086.086,0,0,1,0,.02s0,.01,0,.013,0,.013,0,.02c-.238.871-3.49,12.934-3.6,18.731-.12,6.016.784,29.026.784,29.026l-8.08,3.806-27.939.8-4.071.061s.642-13.641.88-18.314c.148-2.971.726-8.289.577-13.47a47.7,47.7,0,0,0-.448-7.812c-.058-10.379-.687-20.66-.687-20.66q-.523-7.058-.729-13.211c1.136-.6,2.5-1.3,3.593-1.823,3.38-1.61,8.09-3.777,11.112-5.164,1.77-.812,3.5-1.406,3.5-1.406s12.079-1.157,13.06-1.1a30.65,30.65,0,0,1,3.8,1.3c4.284,1.625,12.541,4.935,13.857,5.88,1.929,1.38,6.006,34.19,6.19,36.487.332,4.138-.977,33.594-.977,33.594" transform="translate(-502.63 -721.827)" fill="#d8d5e0"/><path d="M876.929,1154.847c-.888,8.141-9.928,8.141-9.928,8.141s-3.741-3.273-3.622-5.7c0-.052.006-.107.013-.158.055-.446.56-1,.612-1.894.008-.122.01-.246.013-.37s0-.242,0-.363c0-.618-.038-1.229-.074-1.654-.013-.149-.025-.277-.036-.376-.015-.15-.025-.236-.025-.236s1.458-1.536,3.309-3.365c3.236-3.2,7.686-7.3,7.693-5.669a1.553,1.553,0,0,1-.038.309c-.782,3.67,2.079,11.331,2.079,11.331" transform="translate(-530.807 -702.621)" fill="#eea886"/><path d="M896.366,1348.259s.732,4.615.8,5.818l1.551-.31s-.427-4.883-.678-5.7Z" transform="translate(-551.09 -828.797)" fill="#5d676c"/><path d="M957.129,1406.016s-.474-6.47-2.2-7.45-.708,1.009-.708,1.009,1.034,4.685,1.276,6.586a9.691,9.691,0,0,0,1.637-.145" transform="translate(-586.472 -859.677)" fill="#7f827f"/><path d="M917.874,1419.277l22.8-6.842.358,28.2-22.584,14Z" transform="translate(-564.313 -868.371)" fill="#7f827f"/><path d="M919.368,1454.642l2.877.487,21.958-14.119-.7-28.472-1.9-.1Z" transform="translate(-565.232 -868.372)" fill="#7f827f"/><path d="M876.549,1186.456l-3.763,3.349s4.344-.289,5.155-1.013Z" transform="translate(-536.593 -729.438)" fill="#b4b1ba"/><path d="M819.375,1378.06s17.678,1.505,33.16,0v5.08s-23.252,3.357-33.935-.969Z" transform="translate(-503.279 -847.237)" fill="#292c47"/><path d="M824.747,1179.514c-.977.449-2.132.978-3.358,1.546-2.571,1.187-5.468,2.532-7.754,3.619-1.213.577-2.714,1.256-3.875,1.746.135,4.174.338,8.651.693,13.444,0,0,.334,11.706,1.008,22.809a22.09,22.09,0,0,1,.216,4.88c-.168,2.171-.4,4.542-.687,7.016,0,.032-.006.065-.01.094-.068.587-.139,1.177-.209,1.774,0,.009,0,.016,0,.026-1.5,12.37-4.048,26.562-5.377,30.855-.28.9.687,1.725,1.377,2.364l4.835,3.048s1.994-18.35,2.655-24.578c.639-6.012,2.648-14.073,3.529-21.927v0c1.116-9.964,2.652-19.726,3.481-25.526,2.158-15.1,5.033-21.854,5.033-21.854Z" transform="translate(-495.127 -724.759)" fill="#2c5396"/><path d="M901.853,1222.907c.374,5.038-1.757,32.913.37,33.306s9.942-1.327,9.942-1.327.98-30.061.666-33.212c-.229-2.294-3.88-36.7-5.808-38.079-1.113-.8-9.365-3.724-13.413-5.319-.74-.293-1.457-.571-2.12-.822-.859.955-9.967,17.806-10.678,31.5-.217,4.169.76,12.969,1.5,20.159.793,7.671,1.671,13.658,2.314,20.072,1.268,12.638,2.154,22.695,2.154,22.695l12.578-5.6c2.035-1.019,4.854-5.2,4.088-7.34-2.907-8.144-6.569-22.059-6.573-29.206,0,0,1.4-17.5,2.515-21.346a107.839,107.839,0,0,1,2.46,14.521" transform="translate(-541.508 -723.904)" fill="#2c5396"/><path d="M937.08,1373.8s-.622,2.81-1.46,5.621-1.634,3.717-1.257,5.316c.285,1.206,1.668,2.094,2.008,1.7s.436-5.1,2.387-5.111-.5,5.837.659,5.394,5.586-2.959,5.27-5.327-2.13-4.055-2.069-7.6c.056-3.216-.966-4.544-.966-4.544Z" transform="translate(-574.392 -841.82)" fill="#eea886"/><path d="M941.711,1400.052s-2.587.7-2.3,9.485l2.933-.535s-.127-4.854.711-7.513c0,0-.176-1.716-1.344-1.437" transform="translate(-577.54 -860.739)" fill="#7f827f"/><path d="M934.625,1313.632l.129,22.154a38.558,38.558,0,0,0,10.515-2.447l.423-31.24Z" transform="translate(-574.612 -800.535)" fill="#2c5396"/><path d="M862.1,1187.048s-.322,4.623,3.588,4.73,7.016-3.647,7.016-3.647l-6.491,1.674-3.951-3.349Z" transform="translate(-530.019 -729.438)" fill="#d8d5e0"/><path d="M888.2,1170.062a56.364,56.364,0,0,1-5.642,6.314l3.172,5.323,5.472-9.306Z" transform="translate(-542.599 -719.359)" fill="#eae6f2"/><path d="M864.1,1180.309l3.347,2.475s-2.939-5.361-3-7.748Z" transform="translate(-531.252 -722.417)" fill="#b4b1ba"/><path d="M857.755,1175.036l-2.148,1.518-2.394,7.142,4.193-3.387Z" transform="translate(-524.559 -722.417)" fill="#eae6f2"/><path d="M816.7,1270.891a101.208,101.208,0,0,1,.449,15.764c-.5,7.521-2.558,19.547-2.558,19.547s-.019-26.391,2.109-35.312" transform="translate(-500.815 -781.349)" fill="#1f3b6b"/><path d="M834.4,1100.471s-2.36,5.743-.818,6.436c1.274.572-.772,6.18-1.022,7.087s2.333,1.276,2.926,1.781,2.9,7.239,5,7.229,11.088-4.238,13.352-7.148,3.1-15.069.869-19.926-16.128-5.5-20.3,4.542" transform="translate(-511.854 -671.684)" fill="#eea886"/><path d="M834.153,1096.743a8.4,8.4,0,0,1,1.368-10.481c4.977-4.926,15.8,1.662,16.964,1.835s7.961,1.625,5.7,11.972c-2.014,9.214-2.206,9.455-2.206,9.455s-2.7-4.872-3.966-5.6c-1.976-1.14-5.966-.4-5.966-.4s1.382-5.292-1.69-5.7-7.289-2.53-10.2-1.086" transform="translate(-512.063 -666.717)" fill="#323657"/><path d="M873.854,1121.2c.191-.726.73-3.817,3.49-2.325s-.824,7.587-1.266,7.707-3.831.727-2.225-5.382" transform="translate(-536.986 -687.644)" fill="#eea886"/><path d="M873.289,1154.181a15.307,15.307,0,0,1-8.419,7.664c0-.121,0-.242,0-.363,0-.618-.039-1.229-.074-1.654-.014-.149-.025-.277-.036-.376,0,0,6.771-3.182,8.526-5.271" transform="translate(-531.66 -709.595)" fill="#a77860"/></g></g></g></svg>