<?xml version="1.0" encoding="utf-8"?>
<!-- Generator: Adobe Illustrator 25.0.0, SVG Export Plug-In . SVG Version: 6.00 Build 0)  -->
<svg version="1.1" id="Layer_1" xmlns="http://www.w3.org/2000/svg" xmlns:xlink="http://www.w3.org/1999/xlink" x="0px" y="0px"
	 viewBox="0 0 64.7 65.8" style="enable-background:new 0 0 64.7 65.8;" xml:space="preserve">
<style type="text/css">
	.st0{fill:#F2982A;}
	.st1{fill:#E1E4E8;}
	.st2{fill:#7B7B7B;}
</style>
<path class="st0" d="M0.9,31.9v16.3c0,8.7,6.3,15.8,13.9,15.8h17.6V31.9H0.9z"/>
<path class="st0" d="M32.4,0.7H14.8C7.2,0.7,0.9,7.8,0.9,16.5v15.4h31.5V0.7z"/>
<path class="st0" d="M64.1,16.5c0-8.7-6.3-15.8-13.9-15.8H32.4v31.8h31.7V16.5z"/>
<path class="st1" d="M32.4,32.5v31.6h17.8c7.6,0,13.9-7.1,13.9-15.8V32.5H32.4z"/>
<polygon class="st1" points="24.5,15.2 24.5,17.4 17.7,17.4 17.7,24.2 15.6,24.2 15.6,17.4 8.8,17.4 8.8,15.2 15.6,15.2 15.6,8.4 
	17.7,8.4 17.7,15.2 "/>
<polygon class="st1" points="23,52.8 21.5,54.3 16.7,49.5 11.8,54.3 10.3,52.8 15.1,48 10.3,43.2 11.8,41.7 16.7,46.5 21.5,41.6 
	23,43.1 18.2,48 "/>
<rect x="40.8" y="15.3" class="st1" width="15" height="2.5"/>
<path class="st2" d="M55.8,52.5h-15v-2.1h15V52.5z M40.8,44h15v2.1h-15V44z"/>
</svg>
